<svg xmlns="http://www.w3.org/2000/svg" xmlns:xlink="http://www.w3.org/1999/xlink" width="152" zoomAndPan="magnify" viewBox="0 0 114 30.000001" height="40" preserveAspectRatio="xMidYMid meet" version="1.0"><defs><g/><clipPath id="eab579a624"><path d="M 2.925781 7.027344 L 9 7.027344 L 9 20.816406 L 2.925781 20.816406 Z M 2.925781 7.027344 " clip-rule="nonzero"/></clipPath><clipPath id="71c064ddbf"><path d="M 7 16 L 12.363281 16 L 12.363281 20.816406 L 7 20.816406 Z M 7 16 " clip-rule="nonzero"/></clipPath></defs><g fill="#1b1b1b" fill-opacity="1"><g transform="translate(12.667741, 20.685486)"><g><path d="M 11.921875 -4.984375 C 11.660156 -3.085938 11.007812 -1.753906 9.96875 -0.984375 C 8.9375 -0.210938 7.539062 0.171875 5.78125 0.171875 C 4.019531 0.171875 2.742188 -0.179688 1.953125 -0.890625 C 1.171875 -1.609375 0.78125 -2.664062 0.78125 -4.0625 C 0.78125 -4.445312 0.820312 -4.9375 0.90625 -5.53125 L 1.890625 -12.578125 C 1.898438 -12.710938 1.925781 -12.796875 1.96875 -12.828125 C 2.007812 -12.859375 2.082031 -12.875 2.1875 -12.875 L 5.484375 -12.875 C 5.585938 -12.875 5.671875 -12.820312 5.734375 -12.71875 C 5.796875 -12.625 5.816406 -12.519531 5.796875 -12.40625 L 4.75 -4.90625 C 4.707031 -4.539062 4.6875 -4.296875 4.6875 -4.171875 C 4.6875 -3.597656 4.8125 -3.191406 5.0625 -2.953125 C 5.320312 -2.710938 5.703125 -2.59375 6.203125 -2.59375 C 6.835938 -2.59375 7.378906 -2.796875 7.828125 -3.203125 C 8.285156 -3.609375 8.582031 -4.265625 8.71875 -5.171875 L 9.75 -12.578125 C 9.757812 -12.710938 9.785156 -12.796875 9.828125 -12.828125 C 9.867188 -12.859375 9.941406 -12.875 10.046875 -12.875 L 12.65625 -12.875 C 12.757812 -12.875 12.84375 -12.820312 12.90625 -12.71875 C 12.96875 -12.625 12.988281 -12.519531 12.96875 -12.40625 Z M 11.921875 -4.984375 "/></g></g></g><g fill="#1b1b1b" fill-opacity="1"><g transform="translate(25.299482, 20.685486)"><g><path d="M 0.609375 0 C 0.503906 0 0.425781 -0.0195312 0.375 -0.0625 C 0.332031 -0.101562 0.3125 -0.175781 0.3125 -0.28125 C 0.3125 -0.320312 0.320312 -0.425781 0.34375 -0.59375 L 2.03125 -12.578125 C 2.039062 -12.722656 2.066406 -12.804688 2.109375 -12.828125 C 2.148438 -12.859375 2.234375 -12.875 2.359375 -12.875 L 7.21875 -12.875 C 7.476562 -12.875 7.632812 -12.742188 7.6875 -12.484375 L 8.734375 -7 C 8.734375 -6.925781 8.753906 -6.890625 8.796875 -6.890625 C 8.835938 -6.890625 8.875 -6.925781 8.90625 -7 L 11.359375 -12.46875 C 11.410156 -12.625 11.46875 -12.726562 11.53125 -12.78125 C 11.601562 -12.84375 11.703125 -12.875 11.828125 -12.875 L 16.953125 -12.875 C 17.140625 -12.875 17.21875 -12.785156 17.1875 -12.609375 L 15.46875 -0.40625 C 15.445312 -0.226562 15.398438 -0.113281 15.328125 -0.0625 C 15.265625 -0.0195312 15.128906 0 14.921875 0 L 12 0 C 11.832031 0 11.710938 -0.0234375 11.640625 -0.078125 C 11.566406 -0.128906 11.53125 -0.222656 11.53125 -0.359375 C 11.53125 -0.429688 11.535156 -0.488281 11.546875 -0.53125 L 12.625 -8.15625 L 12.625 -8.234375 C 12.625 -8.273438 12.609375 -8.296875 12.578125 -8.296875 C 12.535156 -8.296875 12.492188 -8.238281 12.453125 -8.125 L 8.8125 -0.21875 C 8.769531 -0.132812 8.71875 -0.078125 8.65625 -0.046875 C 8.601562 -0.015625 8.523438 0 8.421875 0 L 6.59375 0 C 6.476562 0 6.390625 -0.0234375 6.328125 -0.078125 C 6.273438 -0.128906 6.234375 -0.238281 6.203125 -0.40625 L 4.796875 -8.078125 C 4.753906 -8.203125 4.707031 -8.265625 4.65625 -8.265625 C 4.601562 -8.265625 4.566406 -8.210938 4.546875 -8.109375 L 3.4375 -0.28125 C 3.425781 -0.164062 3.394531 -0.0859375 3.34375 -0.046875 C 3.289062 -0.015625 3.207031 0 3.09375 0 Z M 0.609375 0 "/></g></g></g><g fill="#1b1b1b" fill-opacity="1"><g transform="translate(42.251696, 20.685486)"><g><path d="M 5.6875 -12.875 C 5.882812 -12.875 5.96875 -12.71875 5.9375 -12.40625 L 4.25 -0.40625 C 4.226562 -0.226562 4.179688 -0.113281 4.109375 -0.0625 C 4.046875 -0.0195312 3.910156 0 3.703125 0 L 0.671875 0 C 0.429688 0 0.3125 -0.117188 0.3125 -0.359375 L 0.328125 -0.53125 L 2.03125 -12.578125 C 2.039062 -12.710938 2.066406 -12.796875 2.109375 -12.828125 C 2.148438 -12.859375 2.222656 -12.875 2.328125 -12.875 Z M 5.6875 -12.875 "/></g></g></g><g fill="#1b1b1b" fill-opacity="1"><g transform="translate(47.994976, 20.685486)"><g><path d="M 13.546875 -12.875 C 13.734375 -12.875 13.828125 -12.800781 13.828125 -12.65625 C 13.828125 -12.582031 13.8125 -12.515625 13.78125 -12.453125 L 8 -0.34375 C 7.9375 -0.207031 7.859375 -0.113281 7.765625 -0.0625 C 7.679688 -0.0195312 7.546875 0 7.359375 0 L 4.546875 0 C 4.359375 0 4.222656 -0.0195312 4.140625 -0.0625 C 4.054688 -0.113281 4 -0.207031 3.96875 -0.34375 L 1.578125 -12.46875 C 1.566406 -12.5 1.5625 -12.550781 1.5625 -12.625 C 1.5625 -12.789062 1.664062 -12.875 1.875 -12.875 L 5.296875 -12.875 C 5.398438 -12.875 5.472656 -12.835938 5.515625 -12.765625 C 5.566406 -12.703125 5.601562 -12.585938 5.625 -12.421875 L 6.875 -4.9375 C 6.894531 -4.832031 6.914062 -4.78125 6.9375 -4.78125 C 6.976562 -4.78125 7.015625 -4.820312 7.046875 -4.90625 L 10.34375 -12.609375 C 10.394531 -12.710938 10.453125 -12.78125 10.515625 -12.8125 C 10.578125 -12.851562 10.664062 -12.875 10.78125 -12.875 Z M 13.546875 -12.875 "/></g></g></g><g fill="#1b1b1b" fill-opacity="1"><g transform="translate(59.116064, 20.685486)"><g><path d="M -0.0625 0 C -0.207031 0 -0.28125 -0.0546875 -0.28125 -0.171875 C -0.28125 -0.265625 -0.21875 -0.453125 -0.09375 -0.734375 L 5.796875 -12.5625 C 5.867188 -12.695312 5.953125 -12.78125 6.046875 -12.8125 C 6.148438 -12.851562 6.285156 -12.875 6.453125 -12.875 L 9.875 -12.875 C 10.007812 -12.875 10.109375 -12.820312 10.171875 -12.71875 C 10.234375 -12.625 10.28125 -12.492188 10.3125 -12.328125 L 12.828125 -0.5 C 12.835938 -0.46875 12.84375 -0.414062 12.84375 -0.34375 C 12.84375 -0.113281 12.75 0 12.5625 0 L 9.171875 0 C 9.003906 0 8.890625 -0.125 8.828125 -0.375 L 8.4375 -2.34375 C 8.425781 -2.40625 8.40625 -2.445312 8.375 -2.46875 C 8.34375 -2.488281 8.285156 -2.5 8.203125 -2.5 L 4.5625 -2.5 C 4.476562 -2.5 4.414062 -2.476562 4.375 -2.4375 C 4.332031 -2.40625 4.285156 -2.351562 4.234375 -2.28125 L 3.1875 -0.171875 C 3.15625 -0.0976562 3.113281 -0.0507812 3.0625 -0.03125 C 3.007812 -0.0078125 2.925781 0 2.8125 0 Z M 7.75 -5.453125 C 7.9375 -5.453125 8.003906 -5.566406 7.953125 -5.796875 L 7.328125 -8.703125 C 7.316406 -8.816406 7.273438 -8.875 7.203125 -8.875 C 7.160156 -8.875 7.109375 -8.820312 7.046875 -8.71875 L 5.609375 -5.734375 C 5.578125 -5.660156 5.5625 -5.601562 5.5625 -5.5625 C 5.5625 -5.488281 5.628906 -5.453125 5.765625 -5.453125 Z M 7.75 -5.453125 "/></g></g></g><g fill="#1b1b1b" fill-opacity="1"><g transform="translate(72.979746, 20.685486)"><g><path d="M 13.234375 -12.875 C 13.390625 -12.875 13.457031 -12.785156 13.4375 -12.609375 L 11.6875 -0.203125 C 11.675781 -0.128906 11.644531 -0.078125 11.59375 -0.046875 C 11.539062 -0.015625 11.453125 0 11.328125 0 L 8.953125 0 C 8.867188 0 8.796875 -0.0234375 8.734375 -0.078125 C 8.679688 -0.128906 8.617188 -0.21875 8.546875 -0.34375 L 4.640625 -6.828125 C 4.597656 -6.878906 4.5625 -6.90625 4.53125 -6.90625 C 4.457031 -6.90625 4.414062 -6.832031 4.40625 -6.6875 L 3.5 -0.328125 C 3.488281 -0.191406 3.457031 -0.101562 3.40625 -0.0625 C 3.351562 -0.0195312 3.25 0 3.09375 0 L 0.59375 0 C 0.375 0 0.28125 -0.148438 0.3125 -0.453125 L 2.03125 -12.578125 C 2.039062 -12.710938 2.066406 -12.796875 2.109375 -12.828125 C 2.160156 -12.859375 2.25 -12.875 2.375 -12.875 L 5.203125 -12.875 C 5.335938 -12.875 5.441406 -12.84375 5.515625 -12.78125 C 5.585938 -12.71875 5.664062 -12.617188 5.75 -12.484375 L 9.125 -6.71875 C 9.1875 -6.625 9.242188 -6.578125 9.296875 -6.578125 C 9.335938 -6.578125 9.367188 -6.597656 9.390625 -6.640625 C 9.421875 -6.679688 9.441406 -6.738281 9.453125 -6.8125 L 10.28125 -12.625 C 10.289062 -12.738281 10.316406 -12.804688 10.359375 -12.828125 C 10.410156 -12.859375 10.5 -12.875 10.625 -12.875 Z M 13.234375 -12.875 "/></g></g></g><g fill="#1b1b1b" fill-opacity="1"><g transform="translate(86.184083, 20.685486)"><g><path d="M 7.71875 -13.046875 C 8.707031 -13.046875 9.570312 -12.867188 10.3125 -12.515625 C 11.0625 -12.160156 11.644531 -11.664062 12.0625 -11.03125 C 12.476562 -10.394531 12.703125 -9.675781 12.734375 -8.875 L 12.734375 -8.796875 C 12.734375 -8.679688 12.710938 -8.59375 12.671875 -8.53125 C 12.628906 -8.476562 12.546875 -8.445312 12.421875 -8.4375 L 9.5 -8.265625 C 9.3125 -8.253906 9.207031 -8.425781 9.1875 -8.78125 C 9.144531 -9.289062 9.015625 -9.679688 8.796875 -9.953125 C 8.585938 -10.234375 8.238281 -10.375 7.75 -10.375 C 6.988281 -10.375 6.390625 -10.070312 5.953125 -9.46875 C 5.515625 -8.863281 5.207031 -8.132812 5.03125 -7.28125 C 4.863281 -6.425781 4.78125 -5.597656 4.78125 -4.796875 C 4.78125 -4.023438 4.90625 -3.476562 5.15625 -3.15625 C 5.40625 -2.832031 5.804688 -2.671875 6.359375 -2.671875 C 7.679688 -2.671875 8.675781 -3.34375 9.34375 -4.6875 C 9.40625 -4.832031 9.515625 -4.90625 9.671875 -4.90625 L 9.875 -4.875 L 12.21875 -4.328125 C 12.289062 -4.316406 12.328125 -4.257812 12.328125 -4.15625 C 12.328125 -4.019531 12.285156 -3.847656 12.203125 -3.640625 C 12.078125 -3.253906 11.765625 -2.757812 11.265625 -2.15625 C 10.773438 -1.550781 10.09375 -1.007812 9.21875 -0.53125 C 8.34375 -0.0625 7.304688 0.171875 6.109375 0.171875 C 4.992188 0.171875 4.035156 -0.0664062 3.234375 -0.546875 C 2.429688 -1.023438 1.816406 -1.691406 1.390625 -2.546875 C 0.960938 -3.410156 0.75 -4.394531 0.75 -5.5 C 0.75 -6.875 1.019531 -8.132812 1.5625 -9.28125 C 2.101562 -10.425781 2.898438 -11.335938 3.953125 -12.015625 C 5.003906 -12.703125 6.257812 -13.046875 7.71875 -13.046875 Z M 7.71875 -13.046875 "/></g></g></g><g fill="#1b1b1b" fill-opacity="1"><g transform="translate(98.971992, 20.685486)"><g><path d="M 2.03125 -12.578125 C 2.039062 -12.710938 2.066406 -12.796875 2.109375 -12.828125 C 2.148438 -12.859375 2.222656 -12.875 2.328125 -12.875 L 11.765625 -12.875 C 11.941406 -12.875 12.03125 -12.769531 12.03125 -12.5625 C 12.03125 -12.5 12.023438 -12.445312 12.015625 -12.40625 L 11.71875 -10.390625 C 11.695312 -10.253906 11.65625 -10.160156 11.59375 -10.109375 C 11.539062 -10.054688 11.4375 -10.03125 11.28125 -10.03125 L 5.90625 -10.03125 C 5.800781 -10.03125 5.722656 -10.007812 5.671875 -9.96875 C 5.617188 -9.925781 5.585938 -9.84375 5.578125 -9.71875 L 5.34375 -8.125 L 5.328125 -8 C 5.328125 -7.945312 5.34375 -7.910156 5.375 -7.890625 C 5.40625 -7.867188 5.457031 -7.859375 5.53125 -7.859375 L 8.8125 -7.859375 C 8.925781 -7.859375 9 -7.832031 9.03125 -7.78125 C 9.070312 -7.738281 9.082031 -7.664062 9.0625 -7.5625 L 8.75 -5.296875 C 8.738281 -5.203125 8.710938 -5.140625 8.671875 -5.109375 C 8.640625 -5.078125 8.570312 -5.0625 8.46875 -5.0625 L 5.125 -5.0625 C 5.039062 -5.0625 4.976562 -5.039062 4.9375 -5 C 4.90625 -4.96875 4.878906 -4.898438 4.859375 -4.796875 L 4.625 -3.078125 L 4.625 -2.984375 C 4.625 -2.890625 4.660156 -2.84375 4.734375 -2.84375 L 10.515625 -2.84375 C 10.628906 -2.84375 10.703125 -2.816406 10.734375 -2.765625 C 10.773438 -2.722656 10.785156 -2.640625 10.765625 -2.515625 L 10.46875 -0.28125 C 10.445312 -0.175781 10.410156 -0.101562 10.359375 -0.0625 C 10.316406 -0.0195312 10.222656 0 10.078125 0 L 0.75 0 C 0.59375 0 0.476562 -0.03125 0.40625 -0.09375 C 0.34375 -0.15625 0.3125 -0.25 0.3125 -0.375 L 0.328125 -0.53125 Z M 2.03125 -12.578125 "/></g></g></g><g fill="#1b1b1b" fill-opacity="1"><g transform="translate(110.617589, 20.685486)"><g/></g></g><g clip-path="url(#eab579a624)"><path fill="#f85606" d="M 5.765625 20.71875 L 2.925781 20.71875 L 4.703125 8.007812 C 4.78125 7.445312 5.265625 7.027344 5.832031 7.027344 L 8.667969 7.027344 L 6.894531 19.734375 C 6.8125 20.296875 6.332031 20.71875 5.765625 20.71875 Z M 5.765625 20.71875 " fill-opacity="1" fill-rule="nonzero"/></g><g clip-path="url(#71c064ddbf)"><path fill="#f85606" d="M 12.214844 16.738281 L 11.796875 19.734375 C 11.71875 20.296875 11.234375 20.71875 10.667969 20.71875 L 7.832031 20.71875 L 8.25 17.71875 C 8.328125 17.15625 8.808594 16.738281 9.378906 16.738281 Z M 12.214844 16.738281 " fill-opacity="1" fill-rule="nonzero"/></g></svg>