<svg xmlns="http://www.w3.org/2000/svg" xmlns:xlink="http://www.w3.org/1999/xlink" width="152" zoomAndPan="magnify" viewBox="0 0 114 30.000001" height="40" preserveAspectRatio="xMidYMid meet" version="1.0"><defs><g/><clipPath id="a255f99b9a"><path d="M 2.925781 7.027344 L 9 7.027344 L 9 20.816406 L 2.925781 20.816406 Z M 2.925781 7.027344 " clip-rule="nonzero"/></clipPath><clipPath id="5531d1dc98"><path d="M 7 16 L 12.363281 16 L 12.363281 20.816406 L 7 20.816406 Z M 7 16 " clip-rule="nonzero"/></clipPath></defs><g fill="#1b1b1b" fill-opacity="1"><g transform="translate(12.667741, 20.685486)"><g><path d="M 11.875 -5.09375 C 11.875 -3.1875 11.390625 -1.832031 10.421875 -1.03125 C 9.460938 -0.226562 8.09375 0.171875 6.3125 0.171875 C 4.3125 0.171875 2.882812 -0.289062 2.03125 -1.21875 C 1.1875 -2.144531 0.765625 -3.550781 0.765625 -5.4375 L 0.765625 -12.484375 C 0.765625 -12.609375 0.789062 -12.703125 0.84375 -12.765625 C 0.90625 -12.835938 0.988281 -12.875 1.09375 -12.875 L 4.390625 -12.875 C 4.597656 -12.875 4.703125 -12.753906 4.703125 -12.515625 L 4.703125 -5.015625 C 4.703125 -4.160156 4.863281 -3.539062 5.1875 -3.15625 C 5.519531 -2.78125 5.992188 -2.59375 6.609375 -2.59375 C 7.210938 -2.59375 7.695312 -2.78125 8.0625 -3.15625 C 8.4375 -3.539062 8.625 -4.175781 8.625 -5.0625 L 8.625 -12.484375 C 8.625 -12.742188 8.734375 -12.875 8.953125 -12.875 L 11.5625 -12.875 C 11.769531 -12.875 11.875 -12.753906 11.875 -12.515625 Z M 11.875 -5.09375 "/></g></g></g><g fill="#1b1b1b" fill-opacity="1"><g transform="translate(25.299482, 20.685486)"><g><path d="M 1.359375 0 C 1.210938 0 1.097656 -0.0390625 1.015625 -0.125 C 0.941406 -0.21875 0.90625 -0.335938 0.90625 -0.484375 L 0.90625 -12.484375 C 0.90625 -12.617188 0.929688 -12.71875 0.984375 -12.78125 C 1.046875 -12.84375 1.140625 -12.875 1.265625 -12.875 L 6.125 -12.875 C 6.28125 -12.875 6.390625 -12.851562 6.453125 -12.8125 C 6.515625 -12.78125 6.566406 -12.695312 6.609375 -12.5625 L 8.421875 -7.046875 C 8.453125 -6.953125 8.492188 -6.90625 8.546875 -6.90625 C 8.578125 -6.90625 8.609375 -6.953125 8.640625 -7.046875 L 10.265625 -12.375 C 10.347656 -12.707031 10.503906 -12.875 10.734375 -12.875 L 15.75 -12.875 C 15.957031 -12.875 16.0625 -12.753906 16.0625 -12.515625 L 16.0625 -0.5 C 16.0625 -0.3125 16.015625 -0.179688 15.921875 -0.109375 C 15.835938 -0.0351562 15.695312 0 15.5 0 L 12.5625 0 C 12.394531 0 12.273438 -0.03125 12.203125 -0.09375 C 12.140625 -0.164062 12.109375 -0.28125 12.109375 -0.4375 L 12.109375 -8.234375 C 12.109375 -8.316406 12.085938 -8.359375 12.046875 -8.359375 C 11.984375 -8.359375 11.9375 -8.304688 11.90625 -8.203125 L 9.40625 -0.3125 C 9.320312 -0.101562 9.179688 0 8.984375 0 L 7.171875 0 C 6.960938 0 6.820312 -0.101562 6.75 -0.3125 L 4.25 -8.078125 C 4.21875 -8.191406 4.175781 -8.25 4.125 -8.25 C 4.070312 -8.25 4.046875 -8.1875 4.046875 -8.0625 L 4.046875 -0.375 C 4.046875 -0.226562 4.019531 -0.128906 3.96875 -0.078125 C 3.925781 -0.0234375 3.820312 0 3.65625 0 Z M 1.359375 0 "/></g></g></g><g fill="#1b1b1b" fill-opacity="1"><g transform="translate(42.251696, 20.685486)"><g><path d="M 4.53125 -12.875 C 4.738281 -12.875 4.84375 -12.753906 4.84375 -12.515625 L 4.84375 -0.5 C 4.84375 -0.3125 4.796875 -0.179688 4.703125 -0.109375 C 4.609375 -0.0351562 4.460938 0 4.265625 0 L 1.375 0 C 1.195312 0 1.070312 -0.03125 1 -0.09375 C 0.9375 -0.164062 0.90625 -0.28125 0.90625 -0.4375 L 0.90625 -12.484375 C 0.90625 -12.609375 0.929688 -12.703125 0.984375 -12.765625 C 1.046875 -12.835938 1.128906 -12.875 1.234375 -12.875 Z M 4.53125 -12.875 "/></g></g></g><g fill="#1b1b1b" fill-opacity="1"><g transform="translate(47.994976, 20.685486)"><g><path d="M 12.265625 -12.875 C 12.367188 -12.875 12.453125 -12.84375 12.515625 -12.78125 C 12.585938 -12.71875 12.625 -12.632812 12.625 -12.53125 C 12.625 -12.457031 12.617188 -12.40625 12.609375 -12.375 L 8.578125 -0.4375 C 8.492188 -0.144531 8.28125 0 7.9375 0 L 5.125 0 C 4.769531 0 4.554688 -0.144531 4.484375 -0.4375 L 0.453125 -12.375 C 0.429688 -12.445312 0.421875 -12.5 0.421875 -12.53125 C 0.421875 -12.632812 0.453125 -12.71875 0.515625 -12.78125 C 0.585938 -12.84375 0.675781 -12.875 0.78125 -12.875 L 4.125 -12.875 C 4.351562 -12.875 4.5 -12.753906 4.5625 -12.515625 L 6.890625 -4.890625 C 6.910156 -4.816406 6.941406 -4.78125 6.984375 -4.78125 C 7.003906 -4.78125 7.03125 -4.820312 7.0625 -4.90625 L 9.234375 -12.515625 C 9.253906 -12.628906 9.304688 -12.71875 9.390625 -12.78125 C 9.484375 -12.84375 9.582031 -12.875 9.6875 -12.875 Z M 12.265625 -12.875 "/></g></g></g><g fill="#1b1b1b" fill-opacity="1"><g transform="translate(59.116064, 20.685486)"><g><path d="M 0.75 0 C 0.65625 0 0.578125 -0.03125 0.515625 -0.09375 C 0.460938 -0.15625 0.4375 -0.242188 0.4375 -0.359375 C 0.4375 -0.441406 0.453125 -0.535156 0.484375 -0.640625 L 4.6875 -12.484375 C 4.75 -12.628906 4.8125 -12.726562 4.875 -12.78125 C 4.945312 -12.84375 5.054688 -12.875 5.203125 -12.875 L 8.625 -12.875 C 8.757812 -12.875 8.882812 -12.832031 9 -12.75 C 9.113281 -12.664062 9.195312 -12.550781 9.25 -12.40625 L 13.421875 -0.59375 C 13.441406 -0.5 13.453125 -0.425781 13.453125 -0.375 C 13.453125 -0.269531 13.425781 -0.179688 13.375 -0.109375 C 13.332031 -0.0351562 13.265625 0 13.171875 0 L 9.765625 0 C 9.578125 0 9.453125 -0.0976562 9.390625 -0.296875 L 8.71875 -2.296875 C 8.675781 -2.367188 8.640625 -2.421875 8.609375 -2.453125 C 8.585938 -2.484375 8.535156 -2.5 8.453125 -2.5 L 4.78125 -2.5 C 4.632812 -2.5 4.546875 -2.4375 4.515625 -2.3125 L 3.796875 -0.265625 C 3.734375 -0.0859375 3.597656 0 3.390625 0 Z M 7.59375 -5.453125 C 7.71875 -5.453125 7.78125 -5.507812 7.78125 -5.625 C 7.78125 -5.644531 7.769531 -5.703125 7.75 -5.796875 L 6.703125 -8.765625 C 6.679688 -8.828125 6.644531 -8.859375 6.59375 -8.859375 C 6.550781 -8.859375 6.519531 -8.828125 6.5 -8.765625 L 5.4375 -5.8125 C 5.414062 -5.769531 5.40625 -5.710938 5.40625 -5.640625 C 5.40625 -5.515625 5.472656 -5.453125 5.609375 -5.453125 Z M 7.59375 -5.453125 "/></g></g></g><g fill="#1b1b1b" fill-opacity="1"><g transform="translate(72.979746, 20.685486)"><g><path d="M 12.046875 -12.875 C 12.222656 -12.875 12.3125 -12.773438 12.3125 -12.578125 L 12.3125 -0.3125 C 12.3125 -0.21875 12.269531 -0.140625 12.1875 -0.078125 C 12.113281 -0.0234375 12.019531 0 11.90625 0 L 9.53125 0 C 9.425781 0 9.34375 -0.015625 9.28125 -0.046875 C 9.21875 -0.0859375 9.144531 -0.160156 9.0625 -0.265625 L 4.28125 -6.734375 C 4.238281 -6.796875 4.195312 -6.816406 4.15625 -6.796875 C 4.125 -6.785156 4.109375 -6.753906 4.109375 -6.703125 L 4.109375 -0.375 C 4.117188 -0.238281 4.09375 -0.140625 4.03125 -0.078125 C 3.96875 -0.0234375 3.859375 0 3.703125 0 L 1.34375 0 C 1.050781 0 0.90625 -0.113281 0.90625 -0.34375 L 0.90625 -12.484375 C 0.90625 -12.742188 1.03125 -12.875 1.28125 -12.875 L 4.109375 -12.875 C 4.265625 -12.875 4.378906 -12.851562 4.453125 -12.8125 C 4.523438 -12.78125 4.609375 -12.695312 4.703125 -12.5625 L 8.875 -6.765625 C 8.9375 -6.660156 9 -6.609375 9.0625 -6.609375 C 9.113281 -6.609375 9.140625 -6.6875 9.140625 -6.84375 L 9.140625 -12.515625 C 9.140625 -12.753906 9.269531 -12.875 9.53125 -12.875 Z M 12.046875 -12.875 "/></g></g></g><g fill="#1b1b1b" fill-opacity="1"><g transform="translate(86.184083, 20.685486)"><g><path d="M 6.6875 -13.046875 C 7.644531 -13.046875 8.507812 -12.875 9.28125 -12.53125 C 10.0625 -12.195312 10.695312 -11.726562 11.1875 -11.125 C 11.6875 -10.519531 12.015625 -9.832031 12.171875 -9.0625 C 12.203125 -8.925781 12.21875 -8.816406 12.21875 -8.734375 C 12.21875 -8.628906 12.195312 -8.554688 12.15625 -8.515625 C 12.113281 -8.484375 12.039062 -8.460938 11.9375 -8.453125 L 8.90625 -8.265625 C 8.789062 -8.265625 8.710938 -8.285156 8.671875 -8.328125 C 8.640625 -8.367188 8.609375 -8.457031 8.578125 -8.59375 C 8.472656 -9.144531 8.28125 -9.578125 8 -9.890625 C 7.726562 -10.210938 7.320312 -10.375 6.78125 -10.375 C 6.101562 -10.375 5.578125 -10.070312 5.203125 -9.46875 C 4.835938 -8.875 4.65625 -7.898438 4.65625 -6.546875 C 4.65625 -5.140625 4.820312 -4.140625 5.15625 -3.546875 C 5.5 -2.960938 6.035156 -2.671875 6.765625 -2.671875 C 7.378906 -2.671875 7.898438 -2.828125 8.328125 -3.140625 C 8.765625 -3.453125 9.128906 -3.972656 9.421875 -4.703125 C 9.460938 -4.804688 9.5625 -4.859375 9.71875 -4.859375 C 9.800781 -4.859375 9.863281 -4.851562 9.90625 -4.84375 L 12.078125 -4.40625 C 12.253906 -4.351562 12.34375 -4.222656 12.34375 -4.015625 C 12.34375 -3.691406 12.140625 -3.191406 11.734375 -2.515625 C 11.335938 -1.835938 10.710938 -1.21875 9.859375 -0.65625 C 9.015625 -0.101562 7.945312 0.171875 6.65625 0.171875 C 5.425781 0.171875 4.347656 -0.117188 3.421875 -0.703125 C 2.492188 -1.285156 1.773438 -2.085938 1.265625 -3.109375 C 0.765625 -4.140625 0.515625 -5.304688 0.515625 -6.609375 C 0.515625 -7.910156 0.765625 -9.046875 1.265625 -10.015625 C 1.773438 -10.984375 2.492188 -11.726562 3.421875 -12.25 C 4.359375 -12.78125 5.445312 -13.046875 6.6875 -13.046875 Z M 6.6875 -13.046875 "/></g></g></g><g fill="#1b1b1b" fill-opacity="1"><g transform="translate(98.971992, 20.685486)"><g><path d="M 0.90625 -12.484375 C 0.90625 -12.742188 1.015625 -12.875 1.234375 -12.875 L 10.609375 -12.875 C 10.816406 -12.875 10.921875 -12.753906 10.921875 -12.515625 L 10.90625 -10.5 C 10.90625 -10.1875 10.753906 -10.03125 10.453125 -10.03125 L 5.25 -10.03125 C 4.976562 -10.03125 4.84375 -9.921875 4.84375 -9.703125 L 4.84375 -8.234375 C 4.84375 -8.117188 4.867188 -8.023438 4.921875 -7.953125 C 4.984375 -7.890625 5.0625 -7.859375 5.15625 -7.859375 L 8.28125 -7.859375 C 8.519531 -7.859375 8.640625 -7.742188 8.640625 -7.515625 L 8.640625 -5.359375 C 8.640625 -5.160156 8.535156 -5.0625 8.328125 -5.0625 L 5.125 -5.0625 C 5.039062 -5.0625 4.972656 -5.039062 4.921875 -5 C 4.867188 -4.957031 4.84375 -4.898438 4.84375 -4.828125 L 4.84375 -3.09375 C 4.84375 -3 4.859375 -2.929688 4.890625 -2.890625 C 4.921875 -2.859375 4.972656 -2.84375 5.046875 -2.84375 L 10.6875 -2.84375 C 10.945312 -2.84375 11.078125 -2.734375 11.078125 -2.515625 L 11.078125 -0.375 C 11.078125 -0.257812 11.039062 -0.164062 10.96875 -0.09375 C 10.894531 -0.03125 10.789062 0 10.65625 0 L 1.375 0 C 1.195312 0 1.070312 -0.03125 1 -0.09375 C 0.9375 -0.164062 0.90625 -0.28125 0.90625 -0.4375 Z M 0.90625 -12.484375 "/></g></g></g><g fill="#1b1b1b" fill-opacity="1"><g transform="translate(110.617589, 20.685486)"><g/></g></g><g clip-path="url(#a255f99b9a)"><path fill="#ea580c" d="M 5.765625 20.71875 L 2.925781 20.71875 L 4.703125 8.007812 C 4.78125 7.445312 5.265625 7.027344 5.832031 7.027344 L 8.667969 7.027344 L 6.894531 19.734375 C 6.8125 20.296875 6.332031 20.71875 5.765625 20.71875 Z M 5.765625 20.71875 " fill-opacity="1" fill-rule="nonzero"/></g><g clip-path="url(#5531d1dc98)"><path fill="#ea580c" d="M 12.214844 16.738281 L 11.796875 19.734375 C 11.71875 20.296875 11.234375 20.71875 10.667969 20.71875 L 7.832031 20.71875 L 8.25 17.71875 C 8.328125 17.15625 8.808594 16.738281 9.378906 16.738281 Z M 12.214844 16.738281 " fill-opacity="1" fill-rule="nonzero"/></g></svg>